<svg width="22" height="22" viewBox="0 0 22 22" fill="none" xmlns="http://www.w3.org/2000/svg">
<circle cx="11.0059" cy="11" r="11" fill="#FFFF00"/>
<path fill-rule="evenodd" clip-rule="evenodd" d="M11.0058 3C6.58813 3 3.00586 6.58148 3.00586 10.9999C3.00586 14.5346 5.29808 17.5332 8.4767 18.5912C8.87638 18.6654 9.02316 18.4176 9.02316 18.2063C9.02316 18.0156 9.01575 17.3854 9.0123 16.7169C6.78671 17.2009 6.31709 15.773 6.31709 15.773C5.95318 14.8483 5.42884 14.6025 5.42884 14.6025C4.70287 14.106 5.48355 14.1163 5.48355 14.1163C6.28675 14.1726 6.70988 14.9407 6.70988 14.9407C7.42339 16.1634 8.58136 15.81 9.03787 15.6057C9.10967 15.0887 9.31699 14.7356 9.54578 14.5358C7.76889 14.3338 5.90085 13.6477 5.90085 10.5824C5.90085 9.70896 6.21349 8.99531 6.72524 8.43494C6.64205 8.23358 6.36822 7.41991 6.80261 6.31798C6.80261 6.31798 7.47426 6.10297 9.00303 7.13801C9.6413 6.96062 10.3258 6.87147 11.0058 6.86842C11.6854 6.87147 12.3703 6.96036 13.0098 7.13774C14.5367 6.10271 15.2075 6.31772 15.2075 6.31772C15.643 7.41952 15.3691 8.23331 15.2861 8.43468C15.799 8.99505 16.1094 9.70869 16.1094 10.5821C16.1094 13.6547 14.2379 14.3312 12.4565 14.5293C12.7436 14.7776 12.9993 15.2646 12.9993 16.0108C12.9993 17.0812 12.99 17.9427 12.99 18.2062C12.99 18.4191 13.1341 18.6685 13.5395 18.59C16.7163 17.531 19.0059 14.5333 19.0059 10.9999C19.0057 6.58174 15.4239 3 11.0058 3Z" fill="black"/>
<path d="M6.03666 14.486C6.01904 14.5258 5.95651 14.5377 5.89955 14.5105C5.84126 14.4845 5.8088 14.4304 5.82761 14.3905C5.84483 14.3494 5.90749 14.3382 5.96539 14.3656C6.02368 14.3917 6.05679 14.4464 6.03653 14.4861L6.03666 14.486ZM6.36069 14.8475C6.32267 14.8829 6.24809 14.8665 6.19748 14.8104C6.14502 14.7548 6.13522 14.6802 6.17403 14.6443C6.21351 14.6091 6.28584 14.6258 6.3383 14.6814C6.3905 14.7378 6.40083 14.8118 6.36083 14.8477L6.36069 14.8475ZM6.67625 15.3082C6.62723 15.3423 6.54695 15.3104 6.49741 15.2393C6.44839 15.168 6.44839 15.0825 6.49873 15.0485C6.54815 15.0143 6.62723 15.0452 6.67757 15.1157C6.72633 15.1879 6.72633 15.2734 6.67625 15.3082ZM7.10825 15.7534C7.06454 15.8018 6.97101 15.7888 6.90265 15.7229C6.83284 15.6584 6.81336 15.5666 6.85721 15.5184C6.90172 15.4699 6.99565 15.4834 7.0644 15.5489C7.13422 15.6132 7.15528 15.7052 7.10852 15.7533L7.10825 15.7534ZM7.70439 16.0119C7.68492 16.0745 7.5951 16.103 7.50435 16.0762C7.41387 16.0488 7.35466 15.9756 7.3732 15.9122C7.39175 15.849 7.48223 15.8195 7.57351 15.848C7.66399 15.8753 7.7232 15.9481 7.70439 16.0119ZM8.35922 16.0597C8.36147 16.1257 8.28464 16.1802 8.18965 16.1816C8.09387 16.1838 8.01637 16.1303 8.01545 16.0654C8.01545 15.9987 8.09069 15.9448 8.18634 15.943C8.28132 15.9413 8.35935 15.9942 8.35935 16.0596L8.35922 16.0597ZM8.96834 15.9561C8.97973 16.0203 8.91363 16.0864 8.81917 16.1041C8.72644 16.1213 8.64033 16.0813 8.62841 16.0176C8.61702 15.9516 8.68431 15.8855 8.77705 15.8684C8.87163 15.8521 8.95642 15.8908 8.96834 15.9561Z" fill="black"/>
</svg>
