<svg width="22" height="22" viewBox="0 0 22 22" fill="none" xmlns="http://www.w3.org/2000/svg">
<circle cx="11" cy="11" r="11" fill="#FFFF00"/>
<path d="M7.72766 8.72671V16.4677H5.15002V8.72671H7.72766ZM7.89154 6.33684C7.89202 6.35069 7.8925 6.36694 7.8925 6.38366C7.8925 6.74152 7.74056 7.06354 7.49785 7.28906L7.49689 7.28954C7.2365 7.52747 6.8882 7.6732 6.50549 7.6732C6.48208 7.6732 6.45819 7.67272 6.43478 7.67176H6.43813H6.42236C6.40277 7.67272 6.37984 7.6732 6.3569 7.6732C5.98232 7.6732 5.64214 7.52699 5.38939 7.28906L5.38987 7.28954C5.14907 7.05638 5 6.73053 5 6.3698C5 6.35834 5 6.34687 5.00048 6.33493V6.33684C5 6.3268 5 6.31534 5 6.30387C5 5.9398 5.1548 5.61204 5.40182 5.38223L5.40277 5.38175C5.66269 5.14525 6.01003 5 6.39083 5C6.4128 5 6.4343 5.00048 6.45628 5.00143H6.45342C6.47396 5.00048 6.49737 5 6.52174 5C6.8968 5 7.23841 5.14477 7.49355 5.38127L7.49259 5.38032C7.73865 5.61777 7.89154 5.95031 7.89154 6.31868V6.33875V6.33779V6.33684ZM16.999 12.032V16.4677H14.4295V12.3278C14.4319 12.29 14.4329 12.2461 14.4329 12.2021C14.4329 11.774 14.3139 11.3741 14.107 11.033L14.1128 11.043C13.9087 10.7582 13.5791 10.5753 13.2069 10.5753C13.1782 10.5753 13.1495 10.5762 13.1209 10.5786H13.1247C13.1118 10.5781 13.097 10.5776 13.0822 10.5776C12.786 10.5776 12.5136 10.6794 12.2981 10.85L12.301 10.8481C12.0846 11.0234 11.915 11.2475 11.8079 11.505L11.8041 11.516C11.7487 11.6856 11.7172 11.8806 11.7172 12.0831C11.7172 12.1061 11.7176 12.129 11.7186 12.1519V12.1486V16.4687H9.14907C9.15958 14.391 9.16483 12.7063 9.16483 11.4147C9.16483 10.1231 9.16229 9.35244 9.15719 9.10272L9.14955 8.72766H11.7191V9.85236H11.7033C11.8055 9.68753 11.9111 9.54467 12.0272 9.41089L12.0234 9.41519C12.1577 9.26756 12.302 9.13426 12.4572 9.01481L12.4649 9.00908C12.6579 8.86049 12.8844 8.74391 13.13 8.67272L13.1443 8.66937C13.4013 8.59245 13.6971 8.54802 14.0029 8.54802H14.0406H14.0387C14.0726 8.54658 14.1123 8.54563 14.1519 8.54563C14.9551 8.54563 15.6785 8.88676 16.1854 9.43239L16.1868 9.4343C16.7289 10.0255 17 10.8912 17 12.0315L16.999 12.032Z" fill="black"/>
</svg>
