<svg width="22" height="22" viewBox="0 0 22 22" fill="none" xmlns="http://www.w3.org/2000/svg">
<path d="M10.8145 0.00183211C16.9207 -0.108594 21.9364 4.78696 22.0054 10.8282C22.0745 16.9614 17.2106 21.9444 11.132 21.9996C5.06253 22.0502 0.0744482 17.1777 0.000823433 11.1733C-0.0728013 5.06762 4.80024 0.103056 10.8145 0.00183211ZM11.0077 17.3525C11.0077 17.3249 11.0077 17.3019 11.0077 17.2743C11.9096 17.2743 12.8161 17.2881 13.718 17.2697C14.3577 17.2559 14.9789 17.1179 15.5449 16.8004C16.709 16.1378 17.2336 15.0796 17.2658 13.7959C17.3119 11.937 17.298 10.0782 17.2704 8.21937C17.2566 7.32676 16.9759 6.50776 16.3501 5.8314C15.6507 5.08143 14.7626 4.75935 13.7779 4.74555C11.9326 4.71334 10.0874 4.71334 8.2422 4.74555C7.29888 4.75935 6.43839 5.06302 5.74816 5.75319C5.04412 6.45715 4.76803 7.33596 4.74042 8.29298C4.70361 9.56288 4.6944 10.8328 4.699 12.1027C4.699 12.7836 4.71741 13.4646 4.78183 14.141C4.95209 15.8618 6.14849 17.0718 7.86487 17.2237C8.90942 17.3157 9.95858 17.3111 11.0077 17.3525Z" fill="#FFFF00"/>
<path d="M11.0075 5.80255C11.9554 5.83016 12.9033 5.84396 13.8512 5.88537C14.3528 5.90838 14.8314 6.04641 15.2409 6.35928C15.8207 6.79638 16.1014 7.41293 16.1106 8.10769C16.1382 10.0355 16.1612 11.9634 16.106 13.8866C16.0692 15.198 15.1857 16.0492 13.8697 16.1044C12.411 16.1642 10.9477 16.155 9.48438 16.1596C8.95981 16.1596 8.42603 16.1504 7.90605 16.0722C6.68204 15.8927 5.92739 15.1151 5.89518 13.882C5.84456 11.9542 5.83996 10.0263 5.89518 8.10309C5.93199 6.79178 6.81548 5.97739 8.13153 5.87617C8.32019 5.86237 8.51346 5.83936 8.70212 5.83936C9.46598 5.83476 10.2344 5.83936 10.9983 5.83936C11.0075 5.83016 11.0075 5.81635 11.0075 5.80255ZM11.0167 14.2409C12.8113 14.2363 14.2516 12.787 14.2516 10.9926C14.247 9.19815 12.7975 7.75801 11.0029 7.76261C9.20829 7.76721 7.7634 9.21655 7.76801 11.011C7.76801 12.8008 9.22209 14.2455 11.0167 14.2409ZM14.3896 6.8746C13.9663 6.87 13.6258 7.20128 13.6212 7.61998C13.6166 8.03868 13.9571 8.38376 14.3758 8.38376C14.7854 8.38376 15.1213 8.05708 15.1305 7.64298C15.1397 7.21508 14.8176 6.8792 14.3896 6.8746Z" fill="black"/>
<path d="M11.0269 8.89943C12.1911 8.90403 13.116 9.84725 13.1114 11.0159C13.1068 12.18 12.1635 13.1048 10.9947 13.1002C9.83048 13.0956 8.90557 12.1524 8.91017 10.9837C8.91477 9.81964 9.85349 8.89483 11.0269 8.89943Z" fill="black"/>
</svg>
